FFmpeg version SVN-r25716, Copyright (c) 2000-2010 the FFmpeg developers  built on Nov 10 2010 12:23:18 with gcc 4.1.2 20080704 (Red Hat 4.1.2-48)  configuration: --enable-libmp3lame --enable-shared --disable-mmx --arch=x86_64  libavutil     50.33. 0 / 50.33. 0  libavcore      0.12. 1 /  0.12. 1  libavcodec    52.94. 4 / 52.94. 4  libavformat   52.84. 0 / 52.84. 0  libavdevice   52. 2. 2 / 52. 2. 2  libavfilter    1.59. 0 /  1.59. 0  libswscale     0.12. 0 /  0.12. 0Seems stream 0 codec frame rate differs from container frame rate: 600.00 (600/1) -> 10.00 (10/1)Input #0, mov,mp4,m4a,3gp,3g2,mj2, from '/RAID10/data/converted_video_files/35274.mov':  Duration: 00:00:25.80, start: 0.000000, bitrate: 358 kb/s    Stream #0.0(eng): Video: mjpeg, gray, 321x289 [PAR 72:72 DAR 321:289], 357 kb/s, 10 fps, 10 tbr, 600 tbn, 600 tbc[buffer @ 0x9ed6fe0] w:321 h:289 pixfmt:gray[ffsink @ 0x9ed7250] auto-inserting filter 'auto-inserted scaler 0' between the filter 'src' and the filter 'out'[scale @ 0x9ee3480] w:321 h:289 fmt:gray -> w:321 h:289 fmt:yuv420p flags:0x4Output #0, flv, to '/RAID10/data/converted_video_files/35274.flv':  Metadata:    encoder         : Lavf52.84.0    Stream #0.0(eng): Video: flv, yuv420p, 321x289 [PAR 1:1 DAR 321:289], q=2-31, 600 kb/s, 1k tbn, 24 tbcStream mapping:  Stream #0.0 -> #0.0Press [q] to stop encodingframe=  126 fps=  0 q=2.5 size=     657kB time=12.54 bitrate= 429.4kbits/s    frame=  236 fps=228 q=2.5 size=    1346kB time=23.54 bitrate= 468.5kbits/s    frame=  258 fps=222 q=3.0 Lsize=    1515kB time=25.75 bitrate= 481.8kbits/s    video:1510kB audio:0kB global headers:0kB muxing overhead 0.280499%